<?xml version="1.0" encoding="UTF-8" standalone="no"?>
<svg width="366px" height="27px" viewBox="0 0 366 27" version="1.1" xmlns="http://www.w3.org/2000/svg" xmlns:xlink="http://www.w3.org/1999/xlink">
    <!-- Generator: Sketch 43.2 (39069) - http://www.bohemiancoding.com/sketch -->
    <title>Slice 1</title>
    <desc>Created with Sketch.</desc>
    <defs></defs>
    <g id="Page-1" stroke="none" stroke-width="1" fill="none" fill-rule="evenodd">
        <path d="M0.52,1.22 L5.98,1.22 L5.98,10.46 L16.585,10.46 L16.585,1.22 L22.045,1.22 L22.045,26 L16.585,26 L16.585,15.29 L5.98,15.29 L5.98,26 L0.52,26 L0.52,1.22 Z M29.2394444,1.22 L46.0744444,1.22 L46.0744444,6.26 L34.6994444,6.26 L34.6994444,10.88 L45.4444444,10.88 L45.4444444,15.92 L34.6994444,15.92 L34.6994444,20.96 L46.7044444,20.96 L46.7044444,26 L29.2394444,26 L29.2394444,1.22 Z M53.2338888,1.22 L58.6938888,1.22 L58.6938888,20.96 L68.8088888,20.96 L68.8088888,26 L53.2338888,26 L53.2338888,1.22 Z M73.9733333,1.22 L79.4333333,1.22 L79.4333333,20.96 L89.5483333,20.96 L89.5483333,26 L73.9733333,26 L73.9733333,1.22 Z M93.1727777,13.61 C93.1727777,11.6266567 93.5052743,9.83000805 94.1702777,8.22 C94.835281,6.60999195 95.7627717,5.23917233 96.9527777,4.1075 C98.1427836,2.97582768 99.5544362,2.1066697 101.187778,1.5 C102.821119,0.8933303 104.606101,0.59 106.542778,0.59 C108.479454,0.59 110.264436,0.8933303 111.897778,1.5 C113.531119,2.1066697 114.942772,2.97582768 116.132778,4.1075 C117.322784,5.23917233 118.250274,6.60999195 118.915278,8.22 C119.580281,9.83000805 119.912778,11.6266567 119.912778,13.61 C119.912778,15.5933432 119.580281,17.389992 118.915278,19 C118.250274,20.610008 117.322784,21.9808277 116.132778,23.1125 C114.942772,24.2441723 113.531119,25.1133303 111.897778,25.72 C110.264436,26.3266697 108.479454,26.63 106.542778,26.63 C104.606101,26.63 102.821119,26.3266697 101.187778,25.72 C99.5544362,25.1133303 98.1427836,24.2441723 96.9527777,23.1125 C95.7627717,21.9808277 94.835281,20.610008 94.1702777,19 C93.5052743,17.389992 93.1727777,15.5933432 93.1727777,13.61 Z M98.8427777,13.61 C98.8427777,14.7766725 99.0236092,15.8441618 99.3852777,16.8125 C99.7469461,17.7808382 100.266108,18.6208298 100.942778,19.3325 C101.619448,20.0441702 102.430273,20.5983314 103.375278,20.995 C104.320282,21.3916686 105.376105,21.59 106.542778,21.59 C107.70945,21.59 108.765273,21.3916686 109.710278,20.995 C110.655282,20.5983314 111.466108,20.0441702 112.142778,19.3325 C112.819448,18.6208298 113.338609,17.7808382 113.700278,16.8125 C114.061946,15.8441618 114.242778,14.7766725 114.242778,13.61 C114.242778,12.466661 114.061946,11.4050049 113.700278,10.425 C113.338609,9.4449951 112.819448,8.59917023 112.142778,7.8875 C111.466108,7.17582978 110.655282,6.62166865 109.710278,6.225 C108.765273,5.82833135 107.70945,5.63 106.542778,5.63 C105.376105,5.63 104.320282,5.82833135 103.375278,6.225 C102.430273,6.62166865 101.619448,7.17582978 100.942778,7.8875 C100.266108,8.59917023 99.7469461,9.4449951 99.3852777,10.425 C99.0236092,11.4050049 98.8427777,12.466661 98.8427777,13.61 Z M135.281667,1.22 L141.231667,1.22 L145.186667,17.11 L145.256667,17.11 L150.436667,1.22 L155.511667,1.22 L160.656667,17.53 L160.726667,17.53 L164.891667,1.22 L170.421667,1.22 L163.176667,26 L158.311667,26 L152.851667,8.85 L152.781667,8.85 L147.321667,26 L142.631667,26 L135.281667,1.22 Z M175.026111,1.22 L191.861111,1.22 L191.861111,6.26 L180.486111,6.26 L180.486111,10.88 L191.231111,10.88 L191.231111,15.92 L180.486111,15.92 L180.486111,20.96 L192.491111,20.96 L192.491111,26 L175.026111,26 L175.026111,1.22 Z M198.810555,1.22 L208.050555,1.22 C209.123894,1.22 210.20305,1.29583258 211.288055,1.4475 C212.373061,1.59916743 213.347218,1.90249772 214.210555,2.3575 C215.073893,2.81250227 215.773886,3.44832925 216.310555,4.265 C216.847225,5.08167075 217.115555,6.1666599 217.115555,7.52 C217.115555,8.920007 216.724726,10.0808287 215.943055,11.0025 C215.161385,11.9241713 214.128895,12.5833313 212.845555,12.98 L212.845555,13.05 C213.662226,13.1666672 214.403052,13.394165 215.068055,13.7325 C215.733059,14.070835 216.30472,14.5024974 216.783055,15.0275 C217.261391,15.5525026 217.628887,16.1649965 217.885555,16.865 C218.142223,17.5650035 218.270555,18.3116627 218.270555,19.105 C218.270555,20.4116732 217.990558,21.5024956 217.430555,22.3775 C216.870553,23.2525044 216.147226,23.9583306 215.260555,24.495 C214.373884,25.0316694 213.376394,25.4166655 212.268055,25.65 C211.159716,25.8833345 210.057227,26 208.960555,26 L198.810555,26 L198.810555,1.22 Z M204.270555,11.125 L208.225555,11.125 C208.645557,11.125 209.05972,11.0783338 209.468055,10.985 C209.876391,10.8916662 210.243887,10.740001 210.570555,10.53 C210.897224,10.319999 211.159721,10.0400017 211.358055,9.69 C211.55639,9.33999825 211.655555,8.92000245 211.655555,8.43 C211.655555,7.9166641 211.544723,7.49083503 211.323055,7.1525 C211.101388,6.81416497 210.815557,6.5516676 210.465555,6.365 C210.115554,6.1783324 209.718891,6.04416708 209.275555,5.9625 C208.83222,5.88083292 208.400557,5.84 207.980555,5.84 L204.270555,5.84 L204.270555,11.125 Z M204.270555,21.38 L209.170555,21.38 C209.590557,21.38 210.016387,21.3333338 210.448055,21.24 C210.879724,21.1466662 211.270554,20.9833345 211.620555,20.75 C211.970557,20.5166655 212.256388,20.2133352 212.478055,19.84 C212.699723,19.4666648 212.810555,19.0116693 212.810555,18.475 C212.810555,17.8916638 212.664723,17.4191685 212.373055,17.0575 C212.081387,16.6958315 211.713891,16.4216676 211.270555,16.235 C210.82722,16.0483324 210.348891,15.9200004 209.835555,15.85 C209.322219,15.7799996 208.843891,15.745 208.400555,15.745 L204.270555,15.745 L204.270555,21.38 Z M235.739444,1.22 L244.979444,1.22 C246.052783,1.22 247.131939,1.29583258 248.216944,1.4475 C249.30195,1.59916743 250.276107,1.90249772 251.139444,2.3575 C252.002782,2.81250227 252.702775,3.44832925 253.239444,4.265 C253.776114,5.08167075 254.044444,6.1666599 254.044444,7.52 C254.044444,8.920007 253.653615,10.0808287 252.871944,11.0025 C252.090274,11.9241713 251.057784,12.5833313 249.774444,12.98 L249.774444,13.05 C250.591115,13.1666672 251.331941,13.394165 251.996944,13.7325 C252.661948,14.070835 253.233608,14.5024974 253.711944,15.0275 C254.19028,15.5525026 254.557776,16.1649965 254.814444,16.865 C255.071112,17.5650035 255.199444,18.3116627 255.199444,19.105 C255.199444,20.4116732 254.919447,21.5024956 254.359444,22.3775 C253.799441,23.2525044 253.076115,23.9583306 252.189444,24.495 C251.302773,25.0316694 250.305283,25.4166655 249.196944,25.65 C248.088605,25.8833345 246.986116,26 245.889444,26 L235.739444,26 L235.739444,1.22 Z M241.199444,11.125 L245.154444,11.125 C245.574446,11.125 245.988609,11.0783338 246.396944,10.985 C246.80528,10.8916662 247.172776,10.740001 247.499444,10.53 C247.826112,10.319999 248.08861,10.0400017 248.286944,9.69 C248.485279,9.33999825 248.584444,8.92000245 248.584444,8.43 C248.584444,7.9166641 248.473612,7.49083503 248.251944,7.1525 C248.030276,6.81416497 247.744446,6.5516676 247.394444,6.365 C247.044442,6.1783324 246.64778,6.04416708 246.204444,5.9625 C245.761109,5.88083292 245.329446,5.84 244.909444,5.84 L241.199444,5.84 L241.199444,11.125 Z M241.199444,21.38 L246.099444,21.38 C246.519446,21.38 246.945275,21.3333338 247.376944,21.24 C247.808613,21.1466662 248.199442,20.9833345 248.549444,20.75 C248.899446,20.5166655 249.185276,20.2133352 249.406944,19.84 C249.628612,19.4666648 249.739444,19.0116693 249.739444,18.475 C249.739444,17.8916638 249.593612,17.4191685 249.301944,17.0575 C249.010276,16.6958315 248.64278,16.4216676 248.199444,16.235 C247.756109,16.0483324 247.27778,15.9200004 246.764444,15.85 C246.251108,15.7799996 245.77278,15.745 245.329444,15.745 L241.199444,15.745 L241.199444,21.38 Z M259.033889,13.61 C259.033889,11.6266567 259.366385,9.83000805 260.031389,8.22 C260.696392,6.60999195 261.623883,5.23917233 262.813889,4.1075 C264.003895,2.97582768 265.415547,2.1066697 267.048889,1.5 C268.68223,0.8933303 270.467212,0.59 272.403889,0.59 C274.340565,0.59 276.125547,0.8933303 277.758889,1.5 C279.39223,2.1066697 280.803883,2.97582768 281.993889,4.1075 C283.183895,5.23917233 284.111385,6.60999195 284.776389,8.22 C285.441392,9.83000805 285.773889,11.6266567 285.773889,13.61 C285.773889,15.5933432 285.441392,17.389992 284.776389,19 C284.111385,20.610008 283.183895,21.9808277 281.993889,23.1125 C280.803883,24.2441723 279.39223,25.1133303 277.758889,25.72 C276.125547,26.3266697 274.340565,26.63 272.403889,26.63 C270.467212,26.63 268.68223,26.3266697 267.048889,25.72 C265.415547,25.1133303 264.003895,24.2441723 262.813889,23.1125 C261.623883,21.9808277 260.696392,20.610008 260.031389,19 C259.366385,17.389992 259.033889,15.5933432 259.033889,13.61 Z M264.703889,13.61 C264.703889,14.7766725 264.88472,15.8441618 265.246389,16.8125 C265.608057,17.7808382 266.127219,18.6208298 266.803889,19.3325 C267.480559,20.0441702 268.291384,20.5983314 269.236389,20.995 C270.181393,21.3916686 271.237216,21.59 272.403889,21.59 C273.570561,21.59 274.626384,21.3916686 275.571389,20.995 C276.516393,20.5983314 277.327219,20.0441702 278.003889,19.3325 C278.680559,18.6208298 279.19972,17.7808382 279.561389,16.8125 C279.923057,15.8441618 280.103889,14.7766725 280.103889,13.61 C280.103889,12.466661 279.923057,11.4050049 279.561389,10.425 C279.19972,9.4449951 278.680559,8.59917023 278.003889,7.8875 C277.327219,7.17582978 276.516393,6.62166865 275.571389,6.225 C274.626384,5.82833135 273.570561,5.63 272.403889,5.63 C271.237216,5.63 270.181393,5.82833135 269.236389,6.225 C268.291384,6.62166865 267.480559,7.17582978 266.803889,7.8875 C266.127219,8.59917023 265.608057,9.4449951 265.246389,10.425 C264.88472,11.4050049 264.703889,12.466661 264.703889,13.61 Z M290.098333,13.61 C290.098333,11.6266567 290.43083,9.83000805 291.095833,8.22 C291.760836,6.60999195 292.688327,5.23917233 293.878333,4.1075 C295.068339,2.97582768 296.479992,2.1066697 298.113333,1.5 C299.746675,0.8933303 301.531657,0.59 303.468333,0.59 C305.405009,0.59 307.189992,0.8933303 308.823333,1.5 C310.456675,2.1066697 311.868327,2.97582768 313.058333,4.1075 C314.248339,5.23917233 315.17583,6.60999195 315.840833,8.22 C316.505836,9.83000805 316.838333,11.6266567 316.838333,13.61 C316.838333,15.5933432 316.505836,17.389992 315.840833,19 C315.17583,20.610008 314.248339,21.9808277 313.058333,23.1125 C311.868327,24.2441723 310.456675,25.1133303 308.823333,25.72 C307.189992,26.3266697 305.405009,26.63 303.468333,26.63 C301.531657,26.63 299.746675,26.3266697 298.113333,25.72 C296.479992,25.1133303 295.068339,24.2441723 293.878333,23.1125 C292.688327,21.9808277 291.760836,20.610008 291.095833,19 C290.43083,17.389992 290.098333,15.5933432 290.098333,13.61 Z M295.768333,13.61 C295.768333,14.7766725 295.949165,15.8441618 296.310833,16.8125 C296.672501,17.7808382 297.191663,18.6208298 297.868333,19.3325 C298.545003,20.0441702 299.355828,20.5983314 300.300833,20.995 C301.245838,21.3916686 302.301661,21.59 303.468333,21.59 C304.635006,21.59 305.690828,21.3916686 306.635833,20.995 C307.580838,20.5983314 308.391663,20.0441702 309.068333,19.3325 C309.745003,18.6208298 310.264165,17.7808382 310.625833,16.8125 C310.987501,15.8441618 311.168333,14.7766725 311.168333,13.61 C311.168333,12.466661 310.987501,11.4050049 310.625833,10.425 C310.264165,9.4449951 309.745003,8.59917023 309.068333,7.8875 C308.391663,7.17582978 307.580838,6.62166865 306.635833,6.225 C305.690828,5.82833135 304.635006,5.63 303.468333,5.63 C302.301661,5.63 301.245838,5.82833135 300.300833,6.225 C299.355828,6.62166865 298.545003,7.17582978 297.868333,7.8875 C297.191663,8.59917023 296.672501,9.4449951 296.310833,10.425 C295.949165,11.4050049 295.768333,12.466661 295.768333,13.61 Z M322.702777,1.22 L328.162777,1.22 L328.162777,11.51 L337.787777,1.22 L344.927777,1.22 L333.902777,12.735 L345.872777,26 L338.242777,26 L328.162777,14.24 L328.162777,26 L322.702777,26 L322.702777,1.22 Z M361.957222,7.275 C361.513886,6.7149972 360.913059,6.30083468 360.154722,6.0325 C359.396385,5.76416533 358.678892,5.63 358.002222,5.63 C357.605553,5.63 357.197224,5.6766662 356.777222,5.77 C356.35722,5.8633338 355.960557,6.00916568 355.587222,6.2075 C355.213887,6.40583433 354.910556,6.6683317 354.677222,6.995 C354.443887,7.3216683 354.327222,7.718331 354.327222,8.185 C354.327222,8.9316704 354.607219,9.50333135 355.167222,9.9 C355.727225,10.2966687 356.433051,10.6349986 357.284722,10.915 C358.136393,11.1950014 359.052217,11.4749986 360.032222,11.755 C361.012227,12.0350014 361.928051,12.4316641 362.779722,12.945 C363.631393,13.4583359 364.337219,14.1466623 364.897222,15.01 C365.457225,15.8733376 365.737222,17.0283261 365.737222,18.475 C365.737222,19.8516735 365.480558,21.0533282 364.967222,22.08 C364.453886,23.1066718 363.759726,23.95833 362.884722,24.635 C362.009717,25.31167 360.994728,25.8133317 359.839722,26.14 C358.684716,26.4666683 357.465562,26.63 356.182222,26.63 C354.572214,26.63 353.078895,26.3850025 351.702222,25.895 C350.325548,25.4049976 349.042228,24.6116722 347.852222,23.515 L351.737222,19.245 C352.297225,19.9916704 353.003051,20.5691646 353.854722,20.9775 C354.706393,21.3858354 355.587217,21.59 356.497222,21.59 C356.940557,21.59 357.38972,21.5375005 357.844722,21.4325 C358.299724,21.3274995 358.708053,21.170001 359.069722,20.96 C359.43139,20.749999 359.723054,20.4816683 359.944722,20.155 C360.16639,19.8283317 360.277222,19.4433356 360.277222,19 C360.277222,18.2533296 359.991391,17.6641688 359.419722,17.2325 C358.848052,16.8008312 358.13056,16.4333348 357.267222,16.13 C356.403884,15.8266651 355.47056,15.5233348 354.467222,15.22 C353.463884,14.9166651 352.53056,14.5083359 351.667222,13.995 C350.803884,13.4816641 350.086391,12.8050042 349.514722,11.965 C348.943052,11.1249958 348.657222,10.0166736 348.657222,8.64 C348.657222,7.30999335 348.919719,6.14333835 349.444722,5.14 C349.969724,4.13666165 350.669717,3.29667005 351.544722,2.62 C352.419726,1.94332995 353.428883,1.43583503 354.572222,1.0975 C355.715561,0.759164975 356.893882,0.59 358.107222,0.59 C359.507229,0.59 360.860549,0.78833135 362.167222,1.185 C363.473895,1.58166865 364.652217,2.246662 365.702222,3.18 L361.957222,7.275 Z" id="Logo" fill="#FAC700"></path>
    </g>
</svg>