<?xml version="1.0" encoding="UTF-8"?>
<svg width="232px" height="17px" viewBox="0 0 232 17" version="1.1" xmlns="http://www.w3.org/2000/svg" xmlns:xlink="http://www.w3.org/1999/xlink">
    <!-- Generator: Sketch 48.2 (47327) - http://www.bohemiancoding.com/sketch -->
    <title>Slice 1</title>
    <desc>Created with Sketch.</desc>
    <defs></defs>
    <g id="Page-1" stroke="none" stroke-width="1" fill="none" fill-rule="evenodd">
        <path d="M9.92,16 L9.92,9.784 L4.124,9.784 L4.124,16 L0.533,16 L0.533,1.132 L4.124,1.132 L4.124,6.76 L9.92,6.76 L9.92,1.132 L13.511,1.132 L13.511,16 L9.92,16 Z M18.6769999,16 L18.6769999,1.132 L28.6729999,1.132 L28.6729999,4.177 L22.1419999,4.177 L22.1419999,6.97 L28.3159999,6.97 L28.3159999,9.847 L22.1419999,9.847 L22.1419999,12.934 L29.0509999,12.934 L29.0509999,16 L18.6769999,16 Z M33.5239998,16 L33.5239998,1.132 L37.1359998,1.132 L37.1359998,12.871 L42.8899998,12.871 L42.8899998,16 L33.5239998,16 Z M46.6699997,16 L46.6699997,1.132 L50.2819997,1.132 L50.2819997,12.871 L56.0359997,12.871 L56.0359997,16 L46.6699997,16 Z M74.6839996,8.503 C74.6839996,9.67900588 74.4810016,10.7534951 74.0749996,11.7265 C73.6689976,12.6995049 73.1055032,13.5324965 72.3844996,14.2255 C71.663496,14.9185035 70.8060046,15.4539981 69.8119996,15.832 C68.8179946,16.2100019 67.7400054,16.399 66.5779996,16.399 C65.4159938,16.399 64.3415046,16.2100019 63.3544996,15.832 C62.3674947,15.4539981 61.5135032,14.9185035 60.7924996,14.2255 C60.071496,13.5324965 59.5080016,12.6995049 59.1019996,11.7265 C58.6959976,10.7534951 58.4929996,9.67900588 58.4929996,8.503 C58.4929996,7.31299405 58.6959976,6.23850479 59.1019996,5.2795 C59.5080016,4.3204952 60.071496,3.50500336 60.7924996,2.833 C61.5135032,2.16099664 62.3674947,1.64300182 63.3544996,1.279 C64.3415046,0.91499818 65.4159938,0.733 66.5779996,0.733 C67.7400054,0.733 68.8179946,0.91499818 69.8119996,1.279 C70.8060046,1.64300182 71.663496,2.16099664 72.3844996,2.833 C73.1055032,3.50500336 73.6689976,4.3204952 74.0749996,5.2795 C74.4810016,6.23850479 74.6839996,7.31299405 74.6839996,8.503 Z M70.8409996,8.503 C70.8409996,7.85899678 70.7360007,7.2570028 70.5259996,6.697 C70.3159986,6.1369972 70.0255015,5.657502 69.6544996,5.2585 C69.2834978,4.859498 68.8355022,4.54450115 68.3104996,4.3135 C67.785497,4.08249884 67.2080028,3.967 66.5779996,3.967 C65.9479965,3.967 65.3740022,4.08249884 64.8559996,4.3135 C64.337997,4.54450115 63.8900015,4.859498 63.5119996,5.2585 C63.1339977,5.657502 62.8435006,6.1369972 62.6404996,6.697 C62.4374986,7.2570028 62.3359996,7.85899678 62.3359996,8.503 C62.3359996,9.17500336 62.4409986,9.79449716 62.6509996,10.3615 C62.8610007,10.9285028 63.1514978,11.414998 63.5224996,11.821 C63.8935015,12.227002 64.337997,12.5454988 64.8559996,12.7765 C65.3740022,13.0075012 65.9479965,13.123 66.5779996,13.123 C67.2080028,13.123 67.781997,13.0075012 68.2999996,12.7765 C68.8180022,12.5454988 69.2659977,12.227002 69.6439996,11.821 C70.0220015,11.414998 70.3159986,10.9285028 70.5259996,10.3615 C70.7360007,9.79449716 70.8409996,9.17500336 70.8409996,8.503 Z M102.004999,16 L98.4559994,16 L95.5159994,5.941 L95.4529994,5.941 L92.5129994,16 L88.9429994,16 L84.7219994,1.132 L88.5859994,1.132 L90.9379994,11.023 L91.0009994,11.023 L93.6469994,1.132 L97.3849994,1.132 L100.051999,11.023 L100.114999,11.023 L102.508999,1.132 L106.246999,1.132 L102.004999,16 Z M109.879999,16 L109.879999,1.132 L119.875999,1.132 L119.875999,4.177 L113.344999,4.177 L113.344999,6.97 L119.518999,6.97 L119.518999,9.847 L113.344999,9.847 L113.344999,12.934 L120.253999,12.934 L120.253999,16 L109.879999,16 Z M136.318999,11.674 C136.318999,12.4860041 136.158001,13.1684972 135.835999,13.7215 C135.513998,14.2745028 135.087002,14.7189983 134.554999,15.055 C134.022997,15.3910017 133.417503,15.6324993 132.738499,15.7795 C132.059496,15.9265007 131.363003,16 130.648999,16 L124.726999,16 L124.726999,1.132 L130.648999,1.132 C131.223002,1.132 131.810996,1.19149941 132.412999,1.3105 C133.015002,1.42950059 133.560997,1.63249856 134.050999,1.9195 C134.541002,2.20650144 134.939998,2.59499755 135.247999,3.085 C135.556001,3.57500245 135.709999,4.19799622 135.709999,4.954 C135.709999,5.78000413 135.486001,6.4624973 135.037999,7.0015 C134.589997,7.54050269 134.002003,7.92899881 133.273999,8.167 L133.273999,8.209 C133.694001,8.27900035 134.089497,8.40849905 134.460499,8.5975 C134.831501,8.78650095 135.153498,9.02799853 135.426499,9.322 C135.699501,9.61600147 135.916498,9.95899804 136.077499,10.351 C136.2385,10.743002 136.318999,11.1839976 136.318999,11.674 Z M132.244999,5.437 C132.244999,4.93299748 132.052501,4.56550115 131.667499,4.3345 C131.282497,4.10349884 130.712003,3.988 129.955999,3.988 L128.191999,3.988 L128.191999,7.054 L130.123999,7.054 C130.796003,7.054 131.317497,6.91750137 131.688499,6.6445 C132.059501,6.37149864 132.244999,5.96900266 132.244999,5.437 Z M132.727999,11.338 C132.727999,10.7219969 132.497002,10.2950012 132.034999,10.057 C131.572997,9.81899881 130.957003,9.7 130.186999,9.7 L128.191999,9.7 L128.191999,13.102 L130.207999,13.102 C130.488001,13.102 130.778498,13.0775002 131.079499,13.0285 C131.380501,12.9794998 131.653498,12.8920006 131.898499,12.766 C132.1435,12.6399994 132.342998,12.4615012 132.496999,12.2305 C132.651,11.9994988 132.727999,11.7020018 132.727999,11.338 Z M159.733999,11.674 C159.733999,12.4860041 159.573001,13.1684972 159.250999,13.7215 C158.928997,14.2745028 158.502002,14.7189983 157.969999,15.055 C157.437996,15.3910017 156.832502,15.6324993 156.153499,15.7795 C155.474496,15.9265007 154.778003,16 154.063999,16 L148.141999,16 L148.141999,1.132 L154.063999,1.132 C154.638002,1.132 155.225996,1.19149941 155.827999,1.3105 C156.430002,1.42950059 156.975997,1.63249856 157.465999,1.9195 C157.956001,2.20650144 158.354998,2.59499755 158.662999,3.085 C158.971001,3.57500245 159.124999,4.19799622 159.124999,4.954 C159.124999,5.78000413 158.901001,6.4624973 158.452999,7.0015 C158.004997,7.54050269 157.417003,7.92899881 156.688999,8.167 L156.688999,8.209 C157.109001,8.27900035 157.504497,8.40849905 157.875499,8.5975 C158.246501,8.78650095 158.568498,9.02799853 158.841499,9.322 C159.1145,9.61600147 159.331498,9.95899804 159.492499,10.351 C159.6535,10.743002 159.733999,11.1839976 159.733999,11.674 Z M155.659999,5.437 C155.659999,4.93299748 155.467501,4.56550115 155.082499,4.3345 C154.697497,4.10349884 154.127003,3.988 153.370999,3.988 L151.606999,3.988 L151.606999,7.054 L153.538999,7.054 C154.211002,7.054 154.732497,6.91750137 155.103499,6.6445 C155.474501,6.37149864 155.659999,5.96900266 155.659999,5.437 Z M156.142999,11.338 C156.142999,10.7219969 155.912001,10.2950012 155.449999,10.057 C154.987997,9.81899881 154.372003,9.7 153.601999,9.7 L151.606999,9.7 L151.606999,13.102 L153.622999,13.102 C153.903,13.102 154.193498,13.0775002 154.494499,13.0285 C154.795501,12.9794998 155.068498,12.8920006 155.313499,12.766 C155.5585,12.6399994 155.757998,12.4615012 155.911999,12.2305 C156.066,11.9994988 156.142999,11.7020018 156.142999,11.338 Z M179.704999,8.503 C179.704999,9.67900588 179.502001,10.7534951 179.095999,11.7265 C178.689997,12.6995049 178.126503,13.5324965 177.405499,14.2255 C176.684495,14.9185035 175.827004,15.4539981 174.832999,15.832 C173.838994,16.2100019 172.761005,16.399 171.598999,16.399 C170.436993,16.399 169.362504,16.2100019 168.375499,15.832 C167.388494,15.4539981 166.534503,14.9185035 165.813499,14.2255 C165.092495,13.5324965 164.529001,12.6995049 164.122999,11.7265 C163.716997,10.7534951 163.513999,9.67900588 163.513999,8.503 C163.513999,7.31299405 163.716997,6.23850479 164.122999,5.2795 C164.529001,4.3204952 165.092495,3.50500336 165.813499,2.833 C166.534503,2.16099664 167.388494,1.64300182 168.375499,1.279 C169.362504,0.91499818 170.436993,0.733 171.598999,0.733 C172.761005,0.733 173.838994,0.91499818 174.832999,1.279 C175.827004,1.64300182 176.684495,2.16099664 177.405499,2.833 C178.126503,3.50500336 178.689997,4.3204952 179.095999,5.2795 C179.502001,6.23850479 179.704999,7.31299405 179.704999,8.503 Z M175.861999,8.503 C175.861999,7.85899678 175.757,7.2570028 175.546999,6.697 C175.336998,6.1369972 175.046501,5.657502 174.675499,5.2585 C174.304497,4.859498 173.856502,4.54450115 173.331499,4.3135 C172.806496,4.08249884 172.229002,3.967 171.598999,3.967 C170.968996,3.967 170.395002,4.08249884 169.876999,4.3135 C169.358996,4.54450115 168.911001,4.859498 168.532999,5.2585 C168.154997,5.657502 167.8645,6.1369972 167.661499,6.697 C167.458498,7.2570028 167.356999,7.85899678 167.356999,8.503 C167.356999,9.17500336 167.461998,9.79449716 167.671999,10.3615 C167.882,10.9285028 168.172497,11.414998 168.543499,11.821 C168.914501,12.227002 169.358996,12.5454988 169.876999,12.7765 C170.395002,13.0075012 170.968996,13.123 171.598999,13.123 C172.229002,13.123 172.802996,13.0075012 173.320999,12.7765 C173.839002,12.5454988 174.286997,12.227002 174.664999,11.821 C175.043001,11.414998 175.336998,10.9285028 175.546999,10.3615 C175.757,9.79449716 175.861999,9.17500336 175.861999,8.503 Z M199.675999,8.503 C199.675999,9.67900588 199.473001,10.7534951 199.066999,11.7265 C198.660997,12.6995049 198.097502,13.5324965 197.376499,14.2255 C196.655495,14.9185035 195.798004,15.4539981 194.803999,15.832 C193.809994,16.2100019 192.732005,16.399 191.569999,16.399 C190.407993,16.399 189.333504,16.2100019 188.346499,15.832 C187.359494,15.4539981 186.505502,14.9185035 185.784499,14.2255 C185.063495,13.5324965 184.500001,12.6995049 184.093999,11.7265 C183.687997,10.7534951 183.484999,9.67900588 183.484999,8.503 C183.484999,7.31299405 183.687997,6.23850479 184.093999,5.2795 C184.500001,4.3204952 185.063495,3.50500336 185.784499,2.833 C186.505502,2.16099664 187.359494,1.64300182 188.346499,1.279 C189.333504,0.91499818 190.407993,0.733 191.569999,0.733 C192.732005,0.733 193.809994,0.91499818 194.803999,1.279 C195.798004,1.64300182 196.655495,2.16099664 197.376499,2.833 C198.097502,3.50500336 198.660997,4.3204952 199.066999,5.2795 C199.473001,6.23850479 199.675999,7.31299405 199.675999,8.503 Z M195.832999,8.503 C195.832999,7.85899678 195.728,7.2570028 195.517999,6.697 C195.307998,6.1369972 195.017501,5.657502 194.646499,5.2585 C194.275497,4.859498 193.827501,4.54450115 193.302499,4.3135 C192.777496,4.08249884 192.200002,3.967 191.569999,3.967 C190.939996,3.967 190.366001,4.08249884 189.847999,4.3135 C189.329996,4.54450115 188.882001,4.859498 188.503999,5.2585 C188.125997,5.657502 187.8355,6.1369972 187.632499,6.697 C187.429498,7.2570028 187.327999,7.85899678 187.327999,8.503 C187.327999,9.17500336 187.432998,9.79449716 187.642999,10.3615 C187.853,10.9285028 188.143497,11.414998 188.514499,11.821 C188.885501,12.227002 189.329996,12.5454988 189.847999,12.7765 C190.366001,13.0075012 190.939996,13.123 191.569999,13.123 C192.200002,13.123 192.773996,13.0075012 193.291999,12.7765 C193.810001,12.5454988 194.257997,12.227002 194.635999,11.821 C195.014001,11.414998 195.307998,10.9285028 195.517999,10.3615 C195.728,9.79449716 195.832999,9.17500336 195.832999,8.503 Z M213.241999,16 L207.718999,9.154 L207.676999,9.154 L207.676999,16 L204.148999,16 L204.148999,1.132 L207.676999,1.132 L207.676999,7.18 L207.739999,7.18 L213.052999,1.132 L217.546999,1.132 L211.141999,7.978 L217.924999,16 L213.241999,16 Z M229.033999,4.996 C228.725997,4.60399804 228.323501,4.29250116 227.826499,4.0615 C227.329496,3.83049885 226.850001,3.715 226.387999,3.715 C226.149997,3.715 225.9085,3.73599979 225.663499,3.778 C225.418497,3.82000021 225.198,3.90049941 225.001999,4.0195 C224.805998,4.13850059 224.641499,4.29249906 224.508499,4.4815 C224.375498,4.67050095 224.308999,4.91199853 224.308999,5.206 C224.308999,5.45800126 224.361498,5.66799916 224.466499,5.836 C224.571499,6.00400084 224.725498,6.15099937 224.928499,6.277 C225.1315,6.40300063 225.372997,6.51849947 225.652999,6.6235 C225.933,6.72850053 226.247997,6.83699944 226.597999,6.949 C227.102001,7.11700084 227.626996,7.30249898 228.172999,7.5055 C228.719001,7.70850102 229.215996,7.97799832 229.663999,8.314 C230.112001,8.65000168 230.482997,9.06649751 230.776999,9.5635 C231.071,10.0605025 231.217999,10.6799963 231.217999,11.422 C231.217999,12.2760043 231.0605,13.0144969 230.745499,13.6375 C230.430497,14.2605031 230.007001,14.774998 229.474999,15.181 C228.942996,15.587002 228.334002,15.887999 227.647999,16.084 C226.961995,16.280001 226.255002,16.378 225.526999,16.378 C224.462993,16.378 223.434004,16.1925019 222.439999,15.8215 C221.445994,15.4504981 220.620002,14.9220034 219.961999,14.236 L222.313999,11.842 C222.678,12.2900022 223.157496,12.6644985 223.752499,12.9655 C224.347502,13.2665015 224.938996,13.417 225.526999,13.417 C225.793,13.417 226.051997,13.3890003 226.303999,13.333 C226.556,13.2769997 226.776498,13.1860006 226.965499,13.06 C227.1545,12.9339994 227.304998,12.766001 227.416999,12.556 C227.528999,12.345999 227.584999,12.0940015 227.584999,11.8 C227.584999,11.5199986 227.514999,11.282001 227.374999,11.086 C227.234998,10.889999 227.0355,10.7115008 226.776499,10.5505 C226.517497,10.3894992 226.195501,10.2425007 225.810499,10.1095 C225.425497,9.97649933 224.988001,9.83300077 224.497999,9.679 C224.021996,9.52499923 223.556501,9.34300105 223.101499,9.133 C222.646496,8.92299895 222.2405,8.65350165 221.883499,8.3245 C221.526497,7.99549835 221.2395,7.59650234 221.022499,7.1275 C220.805498,6.65849766 220.696999,6.08800336 220.696999,5.416 C220.696999,4.58999587 220.864997,3.88300294 221.200999,3.295 C221.537,2.70699706 221.977996,2.22400189 222.523999,1.846 C223.070001,1.46799811 223.685995,1.19150087 224.371999,1.0165 C225.058002,0.841499125 225.750995,0.754 226.450999,0.754 C227.291003,0.754 228.148494,0.90799846 229.023499,1.216 C229.898503,1.52400154 230.664995,1.97899699 231.322999,2.581 L229.033999,4.996 Z" id="HELLO-WEB-BOOKS" fill="#000000"></path>
    </g>
</svg>