<?xml version="1.0" encoding="UTF-8" standalone="no"?>
<svg width="366px" height="27px" viewBox="0 0 366 27" version="1.1" xmlns="http://www.w3.org/2000/svg" xmlns:xlink="http://www.w3.org/1999/xlink">
    <!-- Generator: Sketch 43.2 (39069) - http://www.bohemiancoding.com/sketch -->
    <title>hellowebbooks-website</title>
    <desc>Created with Sketch.</desc>
    <defs></defs>
    <g id="Page-1" stroke="none" stroke-width="1" fill="none" fill-rule="evenodd">
        <rect id="Background" stroke="#979797" x="-291.5" y="-1150.5" width="1199" height="1671"></rect>
        <g id="Nav" transform="translate(-257.000000, -1129.000000)" fill="#E6C24D">
            <path d="M257.445781,1130.0325 L262.905781,1130.0325 L262.905781,1139.2725 L273.510781,1139.2725 L273.510781,1130.0325 L278.970781,1130.0325 L278.970781,1154.8125 L273.510781,1154.8125 L273.510781,1144.1025 L262.905781,1144.1025 L262.905781,1154.8125 L257.445781,1154.8125 L257.445781,1130.0325 Z M286.165226,1130.0325 L303.000226,1130.0325 L303.000226,1135.0725 L291.625226,1135.0725 L291.625226,1139.6925 L302.370226,1139.6925 L302.370226,1144.7325 L291.625226,1144.7325 L291.625226,1149.7725 L303.630226,1149.7725 L303.630226,1154.8125 L286.165226,1154.8125 L286.165226,1130.0325 Z M310.15967,1130.0325 L315.61967,1130.0325 L315.61967,1149.7725 L325.73467,1149.7725 L325.73467,1154.8125 L310.15967,1154.8125 L310.15967,1130.0325 Z M330.899115,1130.0325 L336.359115,1130.0325 L336.359115,1149.7725 L346.474115,1149.7725 L346.474115,1154.8125 L330.899115,1154.8125 L330.899115,1130.0325 Z M350.098559,1142.4225 C350.098559,1140.43916 350.431056,1138.64251 351.096059,1137.0325 C351.761062,1135.42249 352.688553,1134.05167 353.878559,1132.92 C355.068565,1131.78833 356.480217,1130.91917 358.113559,1130.3125 C359.7469,1129.70583 361.531883,1129.4025 363.468559,1129.4025 C365.405235,1129.4025 367.190217,1129.70583 368.823559,1130.3125 C370.4569,1130.91917 371.868553,1131.78833 373.058559,1132.92 C374.248565,1134.05167 375.176056,1135.42249 375.841059,1137.0325 C376.506062,1138.64251 376.838559,1140.43916 376.838559,1142.4225 C376.838559,1144.40584 376.506062,1146.20249 375.841059,1147.8125 C375.176056,1149.42251 374.248565,1150.79333 373.058559,1151.925 C371.868553,1153.05667 370.4569,1153.92583 368.823559,1154.5325 C367.190217,1155.13917 365.405235,1155.4425 363.468559,1155.4425 C361.531883,1155.4425 359.7469,1155.13917 358.113559,1154.5325 C356.480217,1153.92583 355.068565,1153.05667 353.878559,1151.925 C352.688553,1150.79333 351.761062,1149.42251 351.096059,1147.8125 C350.431056,1146.20249 350.098559,1144.40584 350.098559,1142.4225 Z M355.768559,1142.4225 C355.768559,1143.58917 355.94939,1144.65666 356.311059,1145.625 C356.672727,1146.59334 357.191889,1147.43333 357.868559,1148.145 C358.545229,1148.85667 359.356054,1149.41083 360.301059,1149.8075 C361.246064,1150.20417 362.301886,1150.4025 363.468559,1150.4025 C364.635231,1150.4025 365.691054,1150.20417 366.636059,1149.8075 C367.581064,1149.41083 368.391889,1148.85667 369.068559,1148.145 C369.745229,1147.43333 370.26439,1146.59334 370.626059,1145.625 C370.987727,1144.65666 371.168559,1143.58917 371.168559,1142.4225 C371.168559,1141.27916 370.987727,1140.2175 370.626059,1139.2375 C370.26439,1138.2575 369.745229,1137.41167 369.068559,1136.7 C368.391889,1135.98833 367.581064,1135.43417 366.636059,1135.0375 C365.691054,1134.64083 364.635231,1134.4425 363.468559,1134.4425 C362.301886,1134.4425 361.246064,1134.64083 360.301059,1135.0375 C359.356054,1135.43417 358.545229,1135.98833 357.868559,1136.7 C357.191889,1137.41167 356.672727,1138.2575 356.311059,1139.2375 C355.94939,1140.2175 355.768559,1141.27916 355.768559,1142.4225 Z M392.207448,1130.0325 L398.157448,1130.0325 L402.112448,1145.9225 L402.182448,1145.9225 L407.362448,1130.0325 L412.437448,1130.0325 L417.582448,1146.3425 L417.652448,1146.3425 L421.817448,1130.0325 L427.347448,1130.0325 L420.102448,1154.8125 L415.237448,1154.8125 L409.777448,1137.6625 L409.707448,1137.6625 L404.247448,1154.8125 L399.557448,1154.8125 L392.207448,1130.0325 Z M431.951892,1130.0325 L448.786892,1130.0325 L448.786892,1135.0725 L437.411892,1135.0725 L437.411892,1139.6925 L448.156892,1139.6925 L448.156892,1144.7325 L437.411892,1144.7325 L437.411892,1149.7725 L449.416892,1149.7725 L449.416892,1154.8125 L431.951892,1154.8125 L431.951892,1130.0325 Z M455.736337,1130.0325 L464.976337,1130.0325 C466.049675,1130.0325 467.128831,1130.10833 468.213837,1130.26 C469.298842,1130.41167 470.272999,1130.715 471.136337,1131.17 C471.999674,1131.625 472.699667,1132.26083 473.236337,1133.0775 C473.773006,1133.89417 474.041337,1134.97916 474.041337,1136.3325 C474.041337,1137.73251 473.650507,1138.89333 472.868837,1139.815 C472.087166,1140.73667 471.054676,1141.39583 469.771337,1141.7925 L469.771337,1141.8625 C470.588007,1141.97917 471.328833,1142.20666 471.993837,1142.545 C472.65884,1142.88334 473.230501,1143.315 473.708837,1143.84 C474.187172,1144.365 474.554669,1144.9775 474.811337,1145.6775 C475.068005,1146.3775 475.196337,1147.12416 475.196337,1147.9175 C475.196337,1149.22417 474.916339,1150.315 474.356337,1151.19 C473.796334,1152.065 473.073008,1152.77083 472.186337,1153.3075 C471.299665,1153.84417 470.302175,1154.22917 469.193837,1154.4625 C468.085498,1154.69583 466.983009,1154.8125 465.886337,1154.8125 L455.736337,1154.8125 L455.736337,1130.0325 Z M461.196337,1139.9375 L465.151337,1139.9375 C465.571339,1139.9375 465.985501,1139.89083 466.393837,1139.7975 C466.802172,1139.70417 467.169668,1139.5525 467.496337,1139.3425 C467.823005,1139.1325 468.085502,1138.8525 468.283837,1138.5025 C468.482171,1138.1525 468.581337,1137.7325 468.581337,1137.2425 C468.581337,1136.72916 468.470504,1136.30334 468.248837,1135.965 C468.027169,1135.62666 467.741338,1135.36417 467.391337,1135.1775 C467.041335,1134.99083 466.644672,1134.85667 466.201337,1134.775 C465.758001,1134.69333 465.326339,1134.6525 464.906337,1134.6525 L461.196337,1134.6525 L461.196337,1139.9375 Z M461.196337,1150.1925 L466.096337,1150.1925 C466.516339,1150.1925 466.942168,1150.14583 467.373837,1150.0525 C467.805505,1149.95917 468.196335,1149.79583 468.546337,1149.5625 C468.896338,1149.32917 469.182169,1149.02584 469.403837,1148.6525 C469.625504,1148.27916 469.736337,1147.82417 469.736337,1147.2875 C469.736337,1146.70416 469.590505,1146.23167 469.298837,1145.87 C469.007168,1145.50833 468.639672,1145.23417 468.196337,1145.0475 C467.753001,1144.86083 467.274672,1144.7325 466.761337,1144.6625 C466.248001,1144.5925 465.769672,1144.5575 465.326337,1144.5575 L461.196337,1144.5575 L461.196337,1150.1925 Z M492.665225,1130.0325 L501.905225,1130.0325 C502.978564,1130.0325 504.05772,1130.10833 505.142725,1130.26 C506.227731,1130.41167 507.201888,1130.715 508.065225,1131.17 C508.928563,1131.625 509.628556,1132.26083 510.165225,1133.0775 C510.701895,1133.89417 510.970225,1134.97916 510.970225,1136.3325 C510.970225,1137.73251 510.579396,1138.89333 509.797725,1139.815 C509.016055,1140.73667 507.983565,1141.39583 506.700225,1141.7925 L506.700225,1141.8625 C507.516896,1141.97917 508.257722,1142.20666 508.922725,1142.545 C509.587729,1142.88334 510.15939,1143.315 510.637725,1143.84 C511.116061,1144.365 511.483557,1144.9775 511.740225,1145.6775 C511.996893,1146.3775 512.125225,1147.12416 512.125225,1147.9175 C512.125225,1149.22417 511.845228,1150.315 511.285225,1151.19 C510.725223,1152.065 510.001897,1152.77083 509.115225,1153.3075 C508.228554,1153.84417 507.231064,1154.22917 506.122725,1154.4625 C505.014387,1154.69583 503.911898,1154.8125 502.815225,1154.8125 L492.665225,1154.8125 L492.665225,1130.0325 Z M498.125225,1139.9375 L502.080225,1139.9375 C502.500228,1139.9375 502.91439,1139.89083 503.322725,1139.7975 C503.731061,1139.70417 504.098557,1139.5525 504.425225,1139.3425 C504.751894,1139.1325 505.014391,1138.8525 505.212725,1138.5025 C505.41106,1138.1525 505.510225,1137.7325 505.510225,1137.2425 C505.510225,1136.72916 505.399393,1136.30334 505.177725,1135.965 C504.956058,1135.62666 504.670227,1135.36417 504.320225,1135.1775 C503.970224,1134.99083 503.573561,1134.85667 503.130225,1134.775 C502.68689,1134.69333 502.255228,1134.6525 501.835225,1134.6525 L498.125225,1134.6525 L498.125225,1139.9375 Z M498.125225,1150.1925 L503.025225,1150.1925 C503.445228,1150.1925 503.871057,1150.14583 504.302725,1150.0525 C504.734394,1149.95917 505.125224,1149.79583 505.475225,1149.5625 C505.825227,1149.32917 506.111058,1149.02584 506.332725,1148.6525 C506.554393,1148.27916 506.665225,1147.82417 506.665225,1147.2875 C506.665225,1146.70416 506.519394,1146.23167 506.227725,1145.87 C505.936057,1145.50833 505.568561,1145.23417 505.125225,1145.0475 C504.68189,1144.86083 504.203561,1144.7325 503.690225,1144.6625 C503.17689,1144.5925 502.698561,1144.5575 502.255225,1144.5575 L498.125225,1144.5575 L498.125225,1150.1925 Z M515.95967,1142.4225 C515.95967,1140.43916 516.292167,1138.64251 516.95717,1137.0325 C517.622173,1135.42249 518.549664,1134.05167 519.73967,1132.92 C520.929676,1131.78833 522.341328,1130.91917 523.97467,1130.3125 C525.608011,1129.70583 527.392993,1129.4025 529.32967,1129.4025 C531.266346,1129.4025 533.051328,1129.70583 534.68467,1130.3125 C536.318011,1130.91917 537.729664,1131.78833 538.91967,1132.92 C540.109676,1134.05167 541.037167,1135.42249 541.70217,1137.0325 C542.367173,1138.64251 542.69967,1140.43916 542.69967,1142.4225 C542.69967,1144.40584 542.367173,1146.20249 541.70217,1147.8125 C541.037167,1149.42251 540.109676,1150.79333 538.91967,1151.925 C537.729664,1153.05667 536.318011,1153.92583 534.68467,1154.5325 C533.051328,1155.13917 531.266346,1155.4425 529.32967,1155.4425 C527.392993,1155.4425 525.608011,1155.13917 523.97467,1154.5325 C522.341328,1153.92583 520.929676,1153.05667 519.73967,1151.925 C518.549664,1150.79333 517.622173,1149.42251 516.95717,1147.8125 C516.292167,1146.20249 515.95967,1144.40584 515.95967,1142.4225 Z M521.62967,1142.4225 C521.62967,1143.58917 521.810501,1144.65666 522.17217,1145.625 C522.533838,1146.59334 523.053,1147.43333 523.72967,1148.145 C524.40634,1148.85667 525.217165,1149.41083 526.16217,1149.8075 C527.107175,1150.20417 528.162997,1150.4025 529.32967,1150.4025 C530.496342,1150.4025 531.552165,1150.20417 532.49717,1149.8075 C533.442175,1149.41083 534.253,1148.85667 534.92967,1148.145 C535.60634,1147.43333 536.125501,1146.59334 536.48717,1145.625 C536.848838,1144.65666 537.02967,1143.58917 537.02967,1142.4225 C537.02967,1141.27916 536.848838,1140.2175 536.48717,1139.2375 C536.125501,1138.2575 535.60634,1137.41167 534.92967,1136.7 C534.253,1135.98833 533.442175,1135.43417 532.49717,1135.0375 C531.552165,1134.64083 530.496342,1134.4425 529.32967,1134.4425 C528.162997,1134.4425 527.107175,1134.64083 526.16217,1135.0375 C525.217165,1135.43417 524.40634,1135.98833 523.72967,1136.7 C523.053,1137.41167 522.533838,1138.2575 522.17217,1139.2375 C521.810501,1140.2175 521.62967,1141.27916 521.62967,1142.4225 Z M547.024114,1142.4225 C547.024114,1140.43916 547.356611,1138.64251 548.021614,1137.0325 C548.686618,1135.42249 549.614108,1134.05167 550.804114,1132.92 C551.99412,1131.78833 553.405773,1130.91917 555.039114,1130.3125 C556.672456,1129.70583 558.457438,1129.4025 560.394114,1129.4025 C562.330791,1129.4025 564.115773,1129.70583 565.749114,1130.3125 C567.382456,1130.91917 568.794108,1131.78833 569.984114,1132.92 C571.17412,1134.05167 572.101611,1135.42249 572.766614,1137.0325 C573.431618,1138.64251 573.764114,1140.43916 573.764114,1142.4225 C573.764114,1144.40584 573.431618,1146.20249 572.766614,1147.8125 C572.101611,1149.42251 571.17412,1150.79333 569.984114,1151.925 C568.794108,1153.05667 567.382456,1153.92583 565.749114,1154.5325 C564.115773,1155.13917 562.330791,1155.4425 560.394114,1155.4425 C558.457438,1155.4425 556.672456,1155.13917 555.039114,1154.5325 C553.405773,1153.92583 551.99412,1153.05667 550.804114,1151.925 C549.614108,1150.79333 548.686618,1149.42251 548.021614,1147.8125 C547.356611,1146.20249 547.024114,1144.40584 547.024114,1142.4225 Z M552.694114,1142.4225 C552.694114,1143.58917 552.874946,1144.65666 553.236614,1145.625 C553.598283,1146.59334 554.117444,1147.43333 554.794114,1148.145 C555.470784,1148.85667 556.28161,1149.41083 557.226614,1149.8075 C558.171619,1150.20417 559.227442,1150.4025 560.394114,1150.4025 C561.560787,1150.4025 562.61661,1150.20417 563.561614,1149.8075 C564.506619,1149.41083 565.317444,1148.85667 565.994114,1148.145 C566.670784,1147.43333 567.189946,1146.59334 567.551614,1145.625 C567.913283,1144.65666 568.094114,1143.58917 568.094114,1142.4225 C568.094114,1141.27916 567.913283,1140.2175 567.551614,1139.2375 C567.189946,1138.2575 566.670784,1137.41167 565.994114,1136.7 C565.317444,1135.98833 564.506619,1135.43417 563.561614,1135.0375 C562.61661,1134.64083 561.560787,1134.4425 560.394114,1134.4425 C559.227442,1134.4425 558.171619,1134.64083 557.226614,1135.0375 C556.28161,1135.43417 555.470784,1135.98833 554.794114,1136.7 C554.117444,1137.41167 553.598283,1138.2575 553.236614,1139.2375 C552.874946,1140.2175 552.694114,1141.27916 552.694114,1142.4225 Z M579.628559,1130.0325 L585.088559,1130.0325 L585.088559,1140.3225 L594.713559,1130.0325 L601.853559,1130.0325 L590.828559,1141.5475 L602.798559,1154.8125 L595.168559,1154.8125 L585.088559,1143.0525 L585.088559,1154.8125 L579.628559,1154.8125 L579.628559,1130.0325 Z M618.883003,1136.0875 C618.439668,1135.5275 617.83884,1135.11333 617.080503,1134.845 C616.322166,1134.57667 615.604673,1134.4425 614.928003,1134.4425 C614.531334,1134.4425 614.123005,1134.48917 613.703003,1134.5825 C613.283001,1134.67583 612.886338,1134.82167 612.513003,1135.02 C612.139668,1135.21833 611.836338,1135.48083 611.603003,1135.8075 C611.369669,1136.13417 611.253003,1136.53083 611.253003,1136.9975 C611.253003,1137.74417 611.533,1138.31583 612.093003,1138.7125 C612.653006,1139.10917 613.358832,1139.4475 614.210503,1139.7275 C615.062174,1140.0075 615.977998,1140.2875 616.958003,1140.5675 C617.938008,1140.8475 618.853832,1141.24416 619.705503,1141.7575 C620.557174,1142.27084 621.263,1142.95916 621.823003,1143.8225 C622.383006,1144.68584 622.663003,1145.84083 622.663003,1147.2875 C622.663003,1148.66417 622.406339,1149.86583 621.893003,1150.8925 C621.379667,1151.91917 620.685507,1152.77083 619.810503,1153.4475 C618.935499,1154.12417 617.920509,1154.62583 616.765503,1154.9525 C615.610497,1155.27917 614.391343,1155.4425 613.108003,1155.4425 C611.497995,1155.4425 610.004677,1155.1975 608.628003,1154.7075 C607.25133,1154.2175 605.968009,1153.42417 604.778003,1152.3275 L608.663003,1148.0575 C609.223006,1148.80417 609.928832,1149.38166 610.780503,1149.79 C611.632174,1150.19834 612.512999,1150.4025 613.423003,1150.4025 C613.866339,1150.4025 614.315501,1150.35 614.770503,1150.245 C615.225505,1150.14 615.633835,1149.9825 615.995503,1149.7725 C616.357172,1149.5625 616.648835,1149.29417 616.870503,1148.9675 C617.092171,1148.64083 617.203003,1148.25584 617.203003,1147.8125 C617.203003,1147.06583 616.917173,1146.47667 616.345503,1146.045 C615.773834,1145.61333 615.056341,1145.24583 614.193003,1144.9425 C613.329665,1144.63917 612.396341,1144.33583 611.393003,1144.0325 C610.389665,1143.72917 609.456341,1143.32084 608.593003,1142.8075 C607.729665,1142.29416 607.012173,1141.6175 606.440503,1140.7775 C605.868834,1139.9375 605.583003,1138.82917 605.583003,1137.4525 C605.583003,1136.12249 605.8455,1134.95584 606.370503,1133.9525 C606.895506,1132.94916 607.595499,1132.10917 608.470503,1131.4325 C609.345507,1130.75583 610.354664,1130.24834 611.498003,1129.91 C612.641342,1129.57166 613.819664,1129.4025 615.033003,1129.4025 C616.43301,1129.4025 617.78633,1129.60083 619.093003,1129.9975 C620.399676,1130.39417 621.577998,1131.05916 622.628003,1131.9925 L618.883003,1136.0875 Z" id="Logo"></path>
        </g>
    </g>
</svg>